<svg xmlns="http://www.w3.org/2000/svg" viewBox="0 0 357.38 79.78">
    <defs>
        <style>.cls-1{fill:#4f46e5;}.cls-2{fill:#4f46e5;}</style>
    </defs>
    <g id="Layer_2" data-name="Layer 2">
        <g id="Layer_1-2" data-name="Layer 1">
            <path class="cls-1" d="M171.26,39.89h0a39.89,39.89,0,0,1-39.89,39.89h0A39.89,39.89,0,0,1,91.48,39.89h0A39.89,39.89,0,0,1,131.37,0h0A39.89,39.89,0,0,1,171.26,39.89Zm-111.42,0h-20V19.94A19.95,19.95,0,0,0,0,19.94v20H0A39.89,39.89,0,0,0,39.89,79.78h20A19.94,19.94,0,0,0,79.78,59.84h0A19.94,19.94,0,0,0,59.84,39.89ZM224.43,0h0a39.89,39.89,0,0,0-39.89,39.89h0a39.89,39.89,0,0,0,39.89,39.89h0a39.89,39.89,0,0,0,39.89-39.89h0A39.89,39.89,0,0,0,224.43,0Zm113,0H286.56a9,9,0,0,0-9,9V59.84a19.94,19.94,0,0,0,19.94,19.94h0a19.94,19.94,0,0,0,19.94-19.94v-20h19.94a19.95,19.95,0,1,0,0-39.89Z"/>
            <path class="cls-2" d="M171.26,39.89h0a39.89,39.89,0,0,1-39.89,39.89h0A39.89,39.89,0,0,1,91.48,39.89h0A39.89,39.89,0,0,1,131.37,0h0A39.89,39.89,0,0,1,171.26,39.89Zm-111.42,0h-20V19.94A19.95,19.95,0,0,0,0,19.94v20H0A39.89,39.89,0,0,0,39.89,79.78h20A19.94,19.94,0,0,0,79.78,59.84h0A19.94,19.94,0,0,0,59.84,39.89ZM224.43,0h0a39.89,39.89,0,0,0-39.89,39.89h0a39.89,39.89,0,0,0,39.89,39.89h0a39.89,39.89,0,0,0,39.89-39.89h0A39.89,39.89,0,0,0,224.43,0Zm113,0H286.56a9,9,0,0,0-9,9V59.84a19.94,19.94,0,0,0,19.94,19.94h0a19.94,19.94,0,0,0,19.94-19.94v-20h19.94a19.95,19.95,0,1,0,0-39.89Z"/>
        </g>
    </g>
</svg>