<svg xmlns="http://www.w3.org/2000/svg"
    xmlns:xlink="http://www.w3.org/1999/xlink" viewBox="0 0 232.35 51.64">
    <defs>
        <style>.cls-1{fill:url(#linear-gradient);}</style>
        <linearGradient id="linear-gradient" x1="73.17" y1="-60.5" x2="154.26" y2="93.11" gradientUnits="userSpaceOnUse">
            <stop offset="0.13" stop-color="#eda144"/>
            <stop offset="0.5" stop-color="#ef4343"/>
            <stop offset="0.58" stop-color="#ef445c"/>
            <stop offset="0.68" stop-color="#ee4577"/>
            <stop offset="0.78" stop-color="#ee468a"/>
            <stop offset="0.89" stop-color="#ee4795"/>
            <stop offset="1" stop-color="#ee4799"/>
        </linearGradient>
    </defs>
    <g id="Layer_2" data-name="Layer 2">
        <g id="Layer_1-2" data-name="Layer 1">
            <path class="cls-1" d="M111.88,25.82h0A25.82,25.82,0,0,1,86.06,51.64h0A25.82,25.82,0,0,1,60.24,25.82h0A25.82,25.82,0,0,1,86.06,0h0A25.82,25.82,0,0,1,111.88,25.82Zm-73.15,0H25.82V12.91A12.91,12.91,0,0,0,0,12.91V25.82H0A25.82,25.82,0,0,0,25.82,51.64H38.73A12.91,12.91,0,0,0,51.64,38.73h0A12.91,12.91,0,0,0,38.73,25.82ZM146.29,0h0a25.82,25.82,0,0,0-25.82,25.82h0a25.82,25.82,0,0,0,25.82,25.82h0a25.82,25.82,0,0,0,25.82-25.82h0A25.82,25.82,0,0,0,146.29,0Zm73.15,0H186.51a5.8,5.8,0,0,0-5.8,5.8V38.73a12.91,12.91,0,0,0,12.91,12.91h0a12.91,12.91,0,0,0,12.91-12.91V25.82h12.91a12.91,12.91,0,0,0,0-25.82Z"/>
        </g>
    </g>
</svg>